{"accessors" : [{"bufferView" : 0, "byteOffset" : 0, "componentType" : 5123, "count" : 1722, "type" : "SCALAR", "max" : [1720], "min" : [0]}, {"bufferView" : 1, "byteOffset" : 0, "componentType" : 5126, "count" : 1721, "type" : "VEC3", "max" : [2.549269914627075, 54.72710037231445, -10.304900169372559], "min" : [-2.3481500148773193, 49.37089920043945, -10.904899597167969], "name" : "POSITION"}, {"bufferView" : 1, "byteOffset" : 12, "componentType" : 5126, "count" : 1721, "type" : "VEC3", "max" : [0.9999737739562988, 1.0000044107437134, 0], "min" : [-1.0000039339065552, -1.0000044107437134, 0], "name" : "NORMAL"}, {"bufferView" : 1, "byteOffset" : 24, "componentType" : 5126, "count" : 1721, "type" : "VEC2", "max" : [1, -0], "min" : [0, -1], "name" : "TEXCOORD_0"}, {"bufferView" : 0, "byteOffset" : 3444, "componentType" : 5123, "count" : 1722, "type" : "SCALAR", "max" : [1581], "min" : [0]}, {"bufferView" : 2, "byteOffset" : 0, "componentType" : 5126, "count" : 1582, "type" : "VEC3", "max" : [2.448580026626587, 5.256269931793213, 0.10000000149011612], "min" : [-2.4488399028778076, -0.10000000149011612, 0], "name" : "POSITION"}, {"bufferView" : 2, "byteOffset" : 12, "componentType" : 5126, "count" : 1582, "type" : "VEC3", "max" : [0.9718066453933716, 0.9932817220687866, 0.7289870381355286], "min" : [-0.9482651948928833, -0.9620459675788879, -0.3396774232387543], "name" : "NORMAL"}, {"bufferView" : 2, "byteOffset" : 24, "componentType" : 5126, "count" : 1582, "type" : "VEC2", "max" : [1, -0], "min" : [0, -1], "name" : "TEXCOORD_0"}, {"bufferView" : 0, "byteOffset" : 6888, "componentType" : 5123, "count" : 855, "type" : "SCALAR", "max" : [711], "min" : [0]}, {"bufferView" : 3, "byteOffset" : 0, "componentType" : 5126, "count" : 712, "type" : "VEC3", "max" : [2.34375, 5.15625, 0.10000000149011612], "min" : [-2.34375, 0, 0.10000000149011612], "name" : "POSITION"}, {"bufferView" : 3, "byteOffset" : 12, "componentType" : 5126, "count" : 712, "type" : "VEC3", "max" : [0, 0, 1.0000044107437134], "min" : [0, 0, 1.0000044107437134], "name" : "NORMAL"}, {"bufferView" : 3, "byteOffset" : 24, "componentType" : 5126, "count" : 712, "type" : "VEC2", "max" : [0.9932140111923218, -0.5], "min" : [0.5067859888076782, -1], "name" : "TEXCOORD_0"}, {"bufferView" : 0, "byteOffset" : 8600, "componentType" : 5123, "count" : 1722, "type" : "SCALAR", "max" : [1646], "min" : [0]}, {"bufferView" : 4, "byteOffset" : 0, "componentType" : 5126, "count" : 1647, "type" : "VEC3", "max" : [2.448580026626587, 5.256269931793213, -0.6000000238418579], "min" : [-2.4488399028778076, -0.10000000149011612, -0.699999988079071], "name" : "POSITION"}, {"bufferView" : 4, "byteOffset" : 12, "componentType" : 5126, "count" : 1647, "type" : "VEC3", "max" : [0.9718066453933716, 0.9932817220687866, 0.3396773338317871], "min" : [-0.9482651948928833, -0.9620458483695984, -0.728987455368042], "name" : "NORMAL"}, {"bufferView" : 4, "byteOffset" : 24, "componentType" : 5126, "count" : 1647, "type" : "VEC2", "max" : [1, -0], "min" : [0, -1], "name" : "TEXCOORD_0"}, {"bufferView" : 0, "byteOffset" : 12044, "componentType" : 5123, "count" : 855, "type" : "SCALAR", "max" : [714], "min" : [0]}, {"bufferView" : 5, "byteOffset" : 0, "componentType" : 5126, "count" : 715, "type" : "VEC3", "max" : [2.34375, 5.15625, -0.699999988079071], "min" : [-2.34375, 0, -0.699999988079071], "name" : "POSITION"}, {"bufferView" : 5, "byteOffset" : 12, "componentType" : 5126, "count" : 715, "type" : "VEC3", "max" : [0, 0, -1.0000044107437134], "min" : [0, 0, -1.0000044107437134], "name" : "NORMAL"}, {"bufferView" : 5, "byteOffset" : 24, "componentType" : 5126, "count" : 715, "type" : "VEC2", "max" : [0.4538080096244812, -0.5], "min" : [0.046192001551389694, -0.9570500254631042], "name" : "TEXCOORD_0"}], "asset" : {"generator" : "Aspose.3D 23.9.0", "version" : "2.0"}, "buffers" : [{"uri" : "data:application/octet-stream;base64,", "byteLength" : 233812}], "bufferViews" : [{"buffer" : 0, "byteOffset" : 0, "byteLength" : 13756, "target" : 34963}, {"buffer" : 0, "byteOffset" : 13760, "byteLength" : 55104, "byteStride" : 32, "target" : 34962}, {"buffer" : 0, "byteOffset" : 68868, "byteLength" : 55104, "byteStride" : 32, "target" : 34962}, {"buffer" : 0, "byteOffset" : 123976, "byteLength" : 27360, "byteStride" : 32, "target" : 34962}, {"buffer" : 0, "byteOffset" : 151340, "byteLength" : 55104, "byteStride" : 32, "target" : 34962}, {"buffer" : 0, "byteOffset" : 206448, "byteLength" : 27360, "byteStride" : 32, "target" : 34962}], "materials" : [{"name" : "Mat", "pbrMetallicRoughness" : {"baseColorFactor" : [0.8, 0.8, 0.8, 1], "metallicFactor" : 0, "roughnessFactor" : 0}, "emissiveFactor" : [0, 0, 0], "alphaMode" : "OPAQUE", "doubleSided" : false}, {"name" : "Mat", "pbrMetallicRoughness" : {"baseColorFactor" : [0.8, 0.8, 0.8, 1], "metallicFactor" : 0, "roughnessFactor" : 0}, "emissiveFactor" : [0, 0, 0], "alphaMode" : "OPAQUE", "doubleSided" : false}, {"name" : "Mat", "pbrMetallicRoughness" : {"baseColorFactor" : [0.8, 0.8, 0.8, 1], "metallicFactor" : 0, "roughnessFactor" : 0}, "emissiveFactor" : [0, 0, 0], "alphaMode" : "OPAQUE", "doubleSided" : false}, {"name" : "Mat", "pbrMetallicRoughness" : {"baseColorFactor" : [0.8, 0.8, 0.8, 1], "metallicFactor" : 0, "roughnessFactor" : 0}, "emissiveFactor" : [0, 0, 0], "alphaMode" : "OPAQUE", "doubleSided" : false}, {"name" : "Mat", "pbrMetallicRoughness" : {"baseColorFactor" : [0.8, 0.8, 0.8, 1], "metallicFactor" : 0, "roughnessFactor" : 0}, "emissiveFactor" : [0, 0, 0], "alphaMode" : "OPAQUE", "doubleSided" : false}], "meshes" : [{"primitives" : [{"attributes" : {"POSITION" : 1, "NORMAL" : 2, "TEXCOORD_0" : 3}, "indices" : 0, "material" : 0, "mode" : 4}], "name" : ""}, {"primitives" : [{"attributes" : {"POSITION" : 5, "NORMAL" : 6, "TEXCOORD_0" : 7}, "indices" : 4, "material" : 1, "mode" : 4}], "name" : ""}, {"primitives" : [{"attributes" : {"POSITION" : 9, "NORMAL" : 10, "TEXCOORD_0" : 11}, "indices" : 8, "material" : 2, "mode" : 4}], "name" : ""}, {"primitives" : [{"attributes" : {"POSITION" : 13, "NORMAL" : 14, "TEXCOORD_0" : 15}, "indices" : 12, "material" : 3, "mode" : 4}], "name" : ""}, {"primitives" : [{"attributes" : {"POSITION" : 17, "NORMAL" : 18, "TEXCOORD_0" : 19}, "indices" : 16, "material" : 4, "mode" : 4}], "name" : ""}], "nodes" : [{"mesh" : 2, "name" : "Cap_1"}, {"children" : [0], "matrix" : [1, 0, 0, 0, 0, 1, 0, 0, 0, 0, 1, 0, 0.100682, 49.4709, -10.3049, 1], "mesh" : 1, "name" : "Rounding_1"}, {"mesh" : 4, "name" : "Cap_2"}, {"children" : [2], "matrix" : [1, 0, 0, 0, 0, 1, 0, 0, 0, 0, 1, 0, 0.100682, 49.4709, -10.3049, 1], "mesh" : 3, "name" : "Rounding_2"}, {"children" : [1, 3], "matrix" : [1, 0, 0, 0, 0, 1, 0, 0, 0, 0, 1, 0, 0, -51.4365, 10.6175, 1], "mesh" : 0, "name" : "Extrude_NURBS"}], "scene" : 0, "scenes" : [{"nodes" : [4]}]}