{"accessors" : [{"bufferView" : 0, "byteOffset" : 0, "componentType" : 5123, "count" : 360, "type" : "SCALAR", "max" : [358], "min" : [0]}, {"bufferView" : 1, "byteOffset" : 0, "componentType" : 5126, "count" : 359, "type" : "VEC3", "max" : [1.7160799503326416, 54.94430160522461, -10.304900169372559], "min" : [-1.511680006980896, 49.27090072631836, -10.904899597167969], "name" : "POSITION"}, {"bufferView" : 1, "byteOffset" : 12, "componentType" : 5126, "count" : 359, "type" : "VEC3", "max" : [0.9518529772758484, 0.9997806549072266, 0], "min" : [-0.9560762047767639, -1.0000028610229492, 0], "name" : "NORMAL"}, {"bufferView" : 1, "byteOffset" : 24, "componentType" : 5126, "count" : 359, "type" : "VEC2", "max" : [1, -0], "min" : [0, -1], "name" : "TEXCOORD_0"}, {"bufferView" : 0, "byteOffset" : 720, "componentType" : 5123, "count" : 360, "type" : "SCALAR", "max" : [325], "min" : [0]}, {"bufferView" : 2, "byteOffset" : 0, "componentType" : 5126, "count" : 326, "type" : "VEC3", "max" : [1.6153899431228638, 5.473430156707764, 0.10000000149011612], "min" : [-1.6123600006103516, -0.1999959945678711, 0], "name" : "POSITION"}, {"bufferView" : 2, "byteOffset" : 12, "componentType" : 5126, "count" : 326, "type" : "VEC3", "max" : [0.7706484198570251, 0.5019439458847046, 0.7072259783744812], "min" : [-0.7662304043769836, -0.554861307144165, 0.5891046524047852], "name" : "NORMAL"}, {"bufferView" : 2, "byteOffset" : 24, "componentType" : 5126, "count" : 326, "type" : "VEC2", "max" : [1, -0], "min" : [0, -1], "name" : "TEXCOORD_0"}, {"bufferView" : 0, "byteOffset" : 1440, "componentType" : 5123, "count" : 174, "type" : "SCALAR", "max" : [152], "min" : [0]}, {"bufferView" : 3, "byteOffset" : 0, "componentType" : 5126, "count" : 153, "type" : "VEC3", "max" : [1.464840054512024, 5.273439884185791, 0.10000000149011612], "min" : [-1.464840054512024, 0, 0.10000000149011612], "name" : "POSITION"}, {"bufferView" : 3, "byteOffset" : 12, "componentType" : 5126, "count" : 153, "type" : "VEC3", "max" : [0, 0, 1.0000044107437134], "min" : [0, 0, 1.0000044107437134], "name" : "NORMAL"}, {"bufferView" : 3, "byteOffset" : 24, "componentType" : 5126, "count" : 153, "type" : "VEC2", "max" : [0.9891520142555237, -0], "min" : [0.5108479857444763, -1], "name" : "TEXCOORD_0"}, {"bufferView" : 0, "byteOffset" : 1788, "componentType" : 5123, "count" : 360, "type" : "SCALAR", "max" : [330], "min" : [0]}, {"bufferView" : 4, "byteOffset" : 0, "componentType" : 5126, "count" : 331, "type" : "VEC3", "max" : [1.6153899431228638, 5.473430156707764, -0.6000000238418579], "min" : [-1.6123600006103516, -0.1999959945678711, -0.699999988079071], "name" : "POSITION"}, {"bufferView" : 4, "byteOffset" : 12, "componentType" : 5126, "count" : 331, "type" : "VEC3", "max" : [0.7706484198570251, 0.5019441843032837, -0.5891046524047852], "min" : [-0.7662304043769836, -0.554861307144165, -0.7072259783744812], "name" : "NORMAL"}, {"bufferView" : 4, "byteOffset" : 24, "componentType" : 5126, "count" : 331, "type" : "VEC2", "max" : [1, -0], "min" : [0, -1], "name" : "TEXCOORD_0"}, {"bufferView" : 0, "byteOffset" : 2508, "componentType" : 5123, "count" : 174, "type" : "SCALAR", "max" : [141], "min" : [0]}, {"bufferView" : 5, "byteOffset" : 0, "componentType" : 5126, "count" : 142, "type" : "VEC3", "max" : [1.464840054512024, 5.273439884185791, -0.699999988079071], "min" : [-1.464840054512024, 0, -0.699999988079071], "name" : "POSITION"}, {"bufferView" : 5, "byteOffset" : 12, "componentType" : 5126, "count" : 142, "type" : "VEC3", "max" : [0, 0, -1.0000044107437134], "min" : [0, 0, -1.0000044107437134], "name" : "NORMAL"}, {"bufferView" : 5, "byteOffset" : 24, "componentType" : 5126, "count" : 142, "type" : "VEC2", "max" : [0.429051011800766, -0.5], "min" : [0.07094880193471909, -0.9579929709434509], "name" : "TEXCOORD_0"}], "asset" : {"generator" : "Aspose.3D 23.9.0", "version" : "2.0"}, "buffers" : [{"uri" : "data:application/octet-stream;base64,", "byteLength" : 48576}], "bufferViews" : [{"buffer" : 0, "byteOffset" : 0, "byteLength" : 2856, "target" : 34963}, {"buffer" : 0, "byteOffset" : 2860, "byteLength" : 11520, "byteStride" : 32, "target" : 34962}, {"buffer" : 0, "byteOffset" : 14384, "byteLength" : 11520, "byteStride" : 32, "target" : 34962}, {"buffer" : 0, "byteOffset" : 25908, "byteLength" : 5568, "byteStride" : 32, "target" : 34962}, {"buffer" : 0, "byteOffset" : 31480, "byteLength" : 11520, "byteStride" : 32, "target" : 34962}, {"buffer" : 0, "byteOffset" : 43004, "byteLength" : 5568, "byteStride" : 32, "target" : 34962}], "materials" : [{"name" : "Mat", "pbrMetallicRoughness" : {"baseColorFactor" : [0.8, 0.8, 0.8, 1], "metallicFactor" : 0, "roughnessFactor" : 0}, "emissiveFactor" : [0, 0, 0], "alphaMode" : "OPAQUE", "doubleSided" : false}, {"name" : "Mat", "pbrMetallicRoughness" : {"baseColorFactor" : [0.8, 0.8, 0.8, 1], "metallicFactor" : 0, "roughnessFactor" : 0}, "emissiveFactor" : [0, 0, 0], "alphaMode" : "OPAQUE", "doubleSided" : false}, {"name" : "Mat", "pbrMetallicRoughness" : {"baseColorFactor" : [0.8, 0.8, 0.8, 1], "metallicFactor" : 0, "roughnessFactor" : 0}, "emissiveFactor" : [0, 0, 0], "alphaMode" : "OPAQUE", "doubleSided" : false}, {"name" : "Mat", "pbrMetallicRoughness" : {"baseColorFactor" : [0.8, 0.8, 0.8, 1], "metallicFactor" : 0, "roughnessFactor" : 0}, "emissiveFactor" : [0, 0, 0], "alphaMode" : "OPAQUE", "doubleSided" : false}, {"name" : "Mat", "pbrMetallicRoughness" : {"baseColorFactor" : [0.8, 0.8, 0.8, 1], "metallicFactor" : 0, "roughnessFactor" : 0}, "emissiveFactor" : [0, 0, 0], "alphaMode" : "OPAQUE", "doubleSided" : false}], "meshes" : [{"primitives" : [{"attributes" : {"POSITION" : 1, "NORMAL" : 2, "TEXCOORD_0" : 3}, "indices" : 0, "material" : 0, "mode" : 4}], "name" : ""}, {"primitives" : [{"attributes" : {"POSITION" : 5, "NORMAL" : 6, "TEXCOORD_0" : 7}, "indices" : 4, "material" : 1, "mode" : 4}], "name" : ""}, {"primitives" : [{"attributes" : {"POSITION" : 9, "NORMAL" : 10, "TEXCOORD_0" : 11}, "indices" : 8, "material" : 2, "mode" : 4}], "name" : ""}, {"primitives" : [{"attributes" : {"POSITION" : 13, "NORMAL" : 14, "TEXCOORD_0" : 15}, "indices" : 12, "material" : 3, "mode" : 4}], "name" : ""}, {"primitives" : [{"attributes" : {"POSITION" : 17, "NORMAL" : 18, "TEXCOORD_0" : 19}, "indices" : 16, "material" : 4, "mode" : 4}], "name" : ""}], "nodes" : [{"mesh" : 2, "name" : "Cap_1"}, {"children" : [0], "matrix" : [1, 0, 0, 0, 0, 1, 0, 0, 0, 0, 1, 0, 0.100682, 49.4709, -10.3049, 1], "mesh" : 1, "name" : "Rounding_1"}, {"mesh" : 4, "name" : "Cap_2"}, {"children" : [2], "matrix" : [1, 0, 0, 0, 0, 1, 0, 0, 0, 0, 1, 0, 0.100682, 49.4709, -10.3049, 1], "mesh" : 3, "name" : "Rounding_2"}, {"children" : [1, 3], "matrix" : [1, 0, 0, 0, 0, 1, 0, 0, 0, 0, 1, 0, 0, -51.4365, 10.6175, 1], "mesh" : 0, "name" : "Extrude_NURBS"}], "scene" : 0, "scenes" : [{"nodes" : [4]}]}