{"accessors" : [{"bufferView" : 0, "byteOffset" : 0, "componentType" : 5123, "count" : 924, "type" : "SCALAR", "max" : [923], "min" : [0]}, {"bufferView" : 1, "byteOffset" : 0, "componentType" : 5126, "count" : 924, "type" : "VEC3", "max" : [2.510270118713379, 54.91270065307617, -10.304900169372559], "min" : [-2.3089001178741455, 49.297401428222656, -10.904899597167969], "name" : "POSITION"}, {"bufferView" : 1, "byteOffset" : 12, "componentType" : 5126, "count" : 924, "type" : "VEC3", "max" : [1.0000041723251343, 1.0000044107437134, 0], "min" : [-0.9999990463256836, -0.977318525314331, 0], "name" : "NORMAL"}, {"bufferView" : 1, "byteOffset" : 24, "componentType" : 5126, "count" : 924, "type" : "VEC2", "max" : [1, -0], "min" : [0, -1], "name" : "TEXCOORD_0"}, {"bufferView" : 0, "byteOffset" : 1848, "componentType" : 5123, "count" : 924, "type" : "SCALAR", "max" : [850], "min" : [0]}, {"bufferView" : 2, "byteOffset" : 0, "componentType" : 5126, "count" : 851, "type" : "VEC3", "max" : [2.409590005874634, 5.441800117492676, 0.10000000149011612], "min" : [-2.4095799922943115, -0.17342199385166168, 0], "name" : "POSITION"}, {"bufferView" : 2, "byteOffset" : 12, "componentType" : 5126, "count" : 851, "type" : "VEC3", "max" : [0.7070492506027222, 0.7071104049682617, 0.7079699635505676], "min" : [-0.7070609331130981, -0.8703168034553528, -0.14048363268375397], "name" : "NORMAL"}, {"bufferView" : 2, "byteOffset" : 24, "componentType" : 5126, "count" : 851, "type" : "VEC2", "max" : [1, -0], "min" : [0, -1], "name" : "TEXCOORD_0"}, {"bufferView" : 0, "byteOffset" : 3696, "componentType" : 5123, "count" : 456, "type" : "SCALAR", "max" : [380], "min" : [0]}, {"bufferView" : 3, "byteOffset" : 0, "componentType" : 5126, "count" : 381, "type" : "VEC3", "max" : [2.309570074081421, 5.341800212860107, 0.10000000149011612], "min" : [-2.309570074081421, -0.02929689921438694, 0.10000000149011612], "name" : "POSITION"}, {"bufferView" : 3, "byteOffset" : 12, "componentType" : 5126, "count" : 381, "type" : "VEC3", "max" : [0, 0, 1.0000044107437134], "min" : [0, 0, 1.0000044107437134], "name" : "NORMAL"}, {"bufferView" : 3, "byteOffset" : 24, "componentType" : 5126, "count" : 381, "type" : "VEC2", "max" : [0.9931129813194275, -0.41391900181770325], "min" : [0.5068870186805725, -1], "name" : "TEXCOORD_0"}, {"bufferView" : 0, "byteOffset" : 4608, "componentType" : 5123, "count" : 924, "type" : "SCALAR", "max" : [886], "min" : [0]}, {"bufferView" : 4, "byteOffset" : 0, "componentType" : 5126, "count" : 887, "type" : "VEC3", "max" : [2.409590005874634, 5.441800117492676, -0.6000000238418579], "min" : [-2.4095799922943115, -0.17342199385166168, -0.699999988079071], "name" : "POSITION"}, {"bufferView" : 4, "byteOffset" : 12, "componentType" : 5126, "count" : 887, "type" : "VEC3", "max" : [0.7070492506027222, 0.7071098685264587, 0.14048263430595398], "min" : [-0.7070609331130981, -0.8703169226646423, -0.7079699635505676], "name" : "NORMAL"}, {"bufferView" : 4, "byteOffset" : 24, "componentType" : 5126, "count" : 887, "type" : "VEC2", "max" : [1, -0], "min" : [0, -1], "name" : "TEXCOORD_0"}, {"bufferView" : 0, "byteOffset" : 6456, "componentType" : 5123, "count" : 456, "type" : "SCALAR", "max" : [380], "min" : [0]}, {"bufferView" : 5, "byteOffset" : 0, "componentType" : 5126, "count" : 381, "type" : "VEC3", "max" : [2.309570074081421, 5.341800212860107, -0.699999988079071], "min" : [-2.309570074081421, -0.02929689921438694, -0.699999988079071], "name" : "POSITION"}, {"bufferView" : 5, "byteOffset" : 12, "componentType" : 5126, "count" : 381, "type" : "VEC3", "max" : [0, 0, -1.0000044107437134], "min" : [0, 0, -1.0000044107437134], "name" : "NORMAL"}, {"bufferView" : 5, "byteOffset" : 24, "componentType" : 5126, "count" : 381, "type" : "VEC2", "max" : [0.4531629979610443, -0.48670101165771484], "min" : [0.04683709889650345, -0.9514859914779663], "name" : "TEXCOORD_0"}], "asset" : {"generator" : "Aspose.3D 23.9.0", "version" : "2.0"}, "buffers" : [{"uri" : "data:application/octet-stream;base64,", "byteLength" : 125280}], "bufferViews" : [{"buffer" : 0, "byteOffset" : 0, "byteLength" : 7368, "target" : 34963}, {"buffer" : 0, "byteOffset" : 7372, "byteLength" : 29568, "byteStride" : 32, "target" : 34962}, {"buffer" : 0, "byteOffset" : 36944, "byteLength" : 29568, "byteStride" : 32, "target" : 34962}, {"buffer" : 0, "byteOffset" : 66516, "byteLength" : 14592, "byteStride" : 32, "target" : 34962}, {"buffer" : 0, "byteOffset" : 81112, "byteLength" : 29568, "byteStride" : 32, "target" : 34962}, {"buffer" : 0, "byteOffset" : 110684, "byteLength" : 14592, "byteStride" : 32, "target" : 34962}], "materials" : [{"name" : "Mat", "pbrMetallicRoughness" : {"baseColorFactor" : [0.8, 0.8, 0.8, 1], "metallicFactor" : 0, "roughnessFactor" : 0}, "emissiveFactor" : [0, 0, 0], "alphaMode" : "OPAQUE", "doubleSided" : false}, {"name" : "Mat", "pbrMetallicRoughness" : {"baseColorFactor" : [0.8, 0.8, 0.8, 1], "metallicFactor" : 0, "roughnessFactor" : 0}, "emissiveFactor" : [0, 0, 0], "alphaMode" : "OPAQUE", "doubleSided" : false}, {"name" : "Mat", "pbrMetallicRoughness" : {"baseColorFactor" : [0.8, 0.8, 0.8, 1], "metallicFactor" : 0, "roughnessFactor" : 0}, "emissiveFactor" : [0, 0, 0], "alphaMode" : "OPAQUE", "doubleSided" : false}, {"name" : "Mat", "pbrMetallicRoughness" : {"baseColorFactor" : [0.8, 0.8, 0.8, 1], "metallicFactor" : 0, "roughnessFactor" : 0}, "emissiveFactor" : [0, 0, 0], "alphaMode" : "OPAQUE", "doubleSided" : false}, {"name" : "Mat", "pbrMetallicRoughness" : {"baseColorFactor" : [0.8, 0.8, 0.8, 1], "metallicFactor" : 0, "roughnessFactor" : 0}, "emissiveFactor" : [0, 0, 0], "alphaMode" : "OPAQUE", "doubleSided" : false}], "meshes" : [{"primitives" : [{"attributes" : {"POSITION" : 1, "NORMAL" : 2, "TEXCOORD_0" : 3}, "indices" : 0, "material" : 0, "mode" : 4}], "name" : ""}, {"primitives" : [{"attributes" : {"POSITION" : 5, "NORMAL" : 6, "TEXCOORD_0" : 7}, "indices" : 4, "material" : 1, "mode" : 4}], "name" : ""}, {"primitives" : [{"attributes" : {"POSITION" : 9, "NORMAL" : 10, "TEXCOORD_0" : 11}, "indices" : 8, "material" : 2, "mode" : 4}], "name" : ""}, {"primitives" : [{"attributes" : {"POSITION" : 13, "NORMAL" : 14, "TEXCOORD_0" : 15}, "indices" : 12, "material" : 3, "mode" : 4}], "name" : ""}, {"primitives" : [{"attributes" : {"POSITION" : 17, "NORMAL" : 18, "TEXCOORD_0" : 19}, "indices" : 16, "material" : 4, "mode" : 4}], "name" : ""}], "nodes" : [{"mesh" : 2, "name" : "Cap_1"}, {"children" : [0], "matrix" : [1, 0, 0, 0, 0, 1, 0, 0, 0, 0, 1, 0, 0.100682, 49.4709, -10.3049, 1], "mesh" : 1, "name" : "Rounding_1"}, {"mesh" : 4, "name" : "Cap_2"}, {"children" : [2], "matrix" : [1, 0, 0, 0, 0, 1, 0, 0, 0, 0, 1, 0, 0.100682, 49.4709, -10.3049, 1], "mesh" : 3, "name" : "Rounding_2"}, {"children" : [1, 3], "matrix" : [1, 0, 0, 0, 0, 1, 0, 0, 0, 0, 1, 0, 0, -51.4365, 10.6175, 1], "mesh" : 0, "name" : "Extrude_NURBS"}], "scene" : 0, "scenes" : [{"nodes" : [4]}]}