{"accessors" : [{"bufferView" : 0, "byteOffset" : 0, "componentType" : 5123, "count" : 960, "type" : "SCALAR", "max" : [958], "min" : [0]}, {"bufferView" : 1, "byteOffset" : 0, "componentType" : 5126, "count" : 959, "type" : "VEC3", "max" : [1.911870002746582, 55.59809875488281, -10.304900169372559], "min" : [-1.8379499912261963, 49.89699935913086, -10.904899597167969], "name" : "POSITION"}, {"bufferView" : 1, "byteOffset" : 12, "componentType" : 5126, "count" : 959, "type" : "VEC3", "max" : [0.9999469518661499, 0.9997479319572449, 0], "min" : [-0.9999994039535522, -0.9996141791343689, 0], "name" : "NORMAL"}, {"bufferView" : 1, "byteOffset" : 24, "componentType" : 5126, "count" : 959, "type" : "VEC2", "max" : [1, -0], "min" : [0, -1], "name" : "TEXCOORD_0"}, {"bufferView" : 0, "byteOffset" : 1920, "componentType" : 5123, "count" : 960, "type" : "SCALAR", "max" : [877], "min" : [0]}, {"bufferView" : 2, "byteOffset" : 0, "componentType" : 5126, "count" : 878, "type" : "VEC3", "max" : [0.10000800341367722, 5.541790008544922, 0.10000000149011612], "min" : [-3.64982008934021, -0.15929800271987915, 0], "name" : "POSITION"}, {"bufferView" : 2, "byteOffset" : 12, "componentType" : 5126, "count" : 878, "type" : "VEC3", "max" : [0.8681608438491821, 0.6916987299919128, 0.7243140339851379], "min" : [-0.929170548915863, -0.7066950798034668, -0.6441751718521118], "name" : "NORMAL"}, {"bufferView" : 2, "byteOffset" : 24, "componentType" : 5126, "count" : 878, "type" : "VEC2", "max" : [1, -0], "min" : [0, -1], "name" : "TEXCOORD_0"}, {"bufferView" : 0, "byteOffset" : 3840, "componentType" : 5123, "count" : 474, "type" : "SCALAR", "max" : [409], "min" : [0]}, {"bufferView" : 3, "byteOffset" : 0, "componentType" : 5126, "count" : 410, "type" : "VEC3", "max" : [2.2204500197172533E-16, 5.341800212860107, 0.10000000149011612], "min" : [-3.549799919128418, 0, 0.10000000149011612], "name" : "POSITION"}, {"bufferView" : 3, "byteOffset" : 12, "componentType" : 5126, "count" : 410, "type" : "VEC3", "max" : [0, 0, 1.0000044107437134], "min" : [0, 0, 1.0000044107437134], "name" : "NORMAL"}, {"bufferView" : 3, "byteOffset" : 24, "componentType" : 5126, "count" : 410, "type" : "VEC2", "max" : [0.7498480081558228, -0.5], "min" : [0.5044819712638855, -1], "name" : "TEXCOORD_0"}, {"bufferView" : 0, "byteOffset" : 4788, "componentType" : 5123, "count" : 960, "type" : "SCALAR", "max" : [899], "min" : [0]}, {"bufferView" : 4, "byteOffset" : 0, "componentType" : 5126, "count" : 900, "type" : "VEC3", "max" : [0.10000800341367722, 5.541790008544922, -0.6000000238418579], "min" : [-3.64982008934021, -0.15929800271987915, -0.699999988079071], "name" : "POSITION"}, {"bufferView" : 4, "byteOffset" : 12, "componentType" : 5126, "count" : 900, "type" : "VEC3", "max" : [0.8681608438491821, 0.6916987299919128, 0.6441751718521118], "min" : [-0.929170548915863, -0.7066950798034668, -0.7243140339851379], "name" : "NORMAL"}, {"bufferView" : 4, "byteOffset" : 24, "componentType" : 5126, "count" : 900, "type" : "VEC2", "max" : [1, -0], "min" : [0, -1], "name" : "TEXCOORD_0"}, {"bufferView" : 0, "byteOffset" : 6708, "componentType" : 5123, "count" : 474, "type" : "SCALAR", "max" : [395], "min" : [0]}, {"bufferView" : 5, "byteOffset" : 0, "componentType" : 5126, "count" : 396, "type" : "VEC3", "max" : [-2.2204500197172533E-16, 5.341800212860107, -0.699999988079071], "min" : [-3.549799919128418, 0, -0.699999988079071], "name" : "POSITION"}, {"bufferView" : 5, "byteOffset" : 12, "componentType" : 5126, "count" : 396, "type" : "VEC3", "max" : [0, 0, -1.0000044107437134], "min" : [0, 0, -1.0000044107437134], "name" : "NORMAL"}, {"bufferView" : 5, "byteOffset" : 24, "componentType" : 5126, "count" : 396, "type" : "VEC2", "max" : [0.4690130054950714, -0.5], "min" : [0.25, -0.9165940284729004], "name" : "TEXCOORD_0"}], "asset" : {"generator" : "Aspose.3D 23.9.0", "version" : "2.0"}, "buffers" : [{"uri" : "data:application/octet-stream;base64,", "byteLength" : 130176}], "bufferViews" : [{"buffer" : 0, "byteOffset" : 0, "byteLength" : 7656, "target" : 34963}, {"buffer" : 0, "byteOffset" : 7660, "byteLength" : 30720, "byteStride" : 32, "target" : 34962}, {"buffer" : 0, "byteOffset" : 38384, "byteLength" : 30720, "byteStride" : 32, "target" : 34962}, {"buffer" : 0, "byteOffset" : 69108, "byteLength" : 15168, "byteStride" : 32, "target" : 34962}, {"buffer" : 0, "byteOffset" : 84280, "byteLength" : 30720, "byteStride" : 32, "target" : 34962}, {"buffer" : 0, "byteOffset" : 115004, "byteLength" : 15168, "byteStride" : 32, "target" : 34962}], "materials" : [{"name" : "Mat", "pbrMetallicRoughness" : {"baseColorFactor" : [0.8, 0.8, 0.8, 1], "metallicFactor" : 0, "roughnessFactor" : 0}, "emissiveFactor" : [0, 0, 0], "alphaMode" : "OPAQUE", "doubleSided" : false}, {"name" : "Mat", "pbrMetallicRoughness" : {"baseColorFactor" : [0.8, 0.8, 0.8, 1], "metallicFactor" : 0, "roughnessFactor" : 0}, "emissiveFactor" : [0, 0, 0], "alphaMode" : "OPAQUE", "doubleSided" : false}, {"name" : "Mat", "pbrMetallicRoughness" : {"baseColorFactor" : [0.8, 0.8, 0.8, 1], "metallicFactor" : 0, "roughnessFactor" : 0}, "emissiveFactor" : [0, 0, 0], "alphaMode" : "OPAQUE", "doubleSided" : false}, {"name" : "Mat", "pbrMetallicRoughness" : {"baseColorFactor" : [0.8, 0.8, 0.8, 1], "metallicFactor" : 0, "roughnessFactor" : 0}, "emissiveFactor" : [0, 0, 0], "alphaMode" : "OPAQUE", "doubleSided" : false}, {"name" : "Mat", "pbrMetallicRoughness" : {"baseColorFactor" : [0.8, 0.8, 0.8, 1], "metallicFactor" : 0, "roughnessFactor" : 0}, "emissiveFactor" : [0, 0, 0], "alphaMode" : "OPAQUE", "doubleSided" : false}], "meshes" : [{"primitives" : [{"attributes" : {"POSITION" : 1, "NORMAL" : 2, "TEXCOORD_0" : 3}, "indices" : 0, "material" : 0, "mode" : 4}], "name" : ""}, {"primitives" : [{"attributes" : {"POSITION" : 5, "NORMAL" : 6, "TEXCOORD_0" : 7}, "indices" : 4, "material" : 1, "mode" : 4}], "name" : ""}, {"primitives" : [{"attributes" : {"POSITION" : 9, "NORMAL" : 10, "TEXCOORD_0" : 11}, "indices" : 8, "material" : 2, "mode" : 4}], "name" : ""}, {"primitives" : [{"attributes" : {"POSITION" : 13, "NORMAL" : 14, "TEXCOORD_0" : 15}, "indices" : 12, "material" : 3, "mode" : 4}], "name" : ""}, {"primitives" : [{"attributes" : {"POSITION" : 17, "NORMAL" : 18, "TEXCOORD_0" : 19}, "indices" : 16, "material" : 4, "mode" : 4}], "name" : ""}], "nodes" : [{"mesh" : 2, "name" : "Cap_1"}, {"children" : [0], "matrix" : [1, 0, 0, 0, 0, 1, 0, 0, 0, 0, 1, 0, 1.81186, 50.0563, -10.3049, 1], "mesh" : 1, "name" : "Rounding_1"}, {"mesh" : 4, "name" : "Cap_2"}, {"children" : [2], "matrix" : [1, 0, 0, 0, 0, 1, 0, 0, 0, 0, 1, 0, 1.81186, 50.0563, -10.3049, 1], "mesh" : 3, "name" : "Rounding_2"}, {"children" : [1, 3], "matrix" : [1, 0, 0, 0, 0, 1, 0, 0, 0, 0, 1, 0, 0, -51.4365, 10.6175, 1], "mesh" : 0, "name" : "Extrude_NURBS"}], "scene" : 0, "scenes" : [{"nodes" : [4]}]}