{"accessors" : [{"bufferView" : 0, "byteOffset" : 0, "componentType" : 5123, "count" : 432, "type" : "SCALAR", "max" : [431], "min" : [0]}, {"bufferView" : 1, "byteOffset" : 0, "componentType" : 5126, "count" : 432, "type" : "VEC3", "max" : [1, 1.5, 1], "min" : [-1, -1.5, -1], "name" : "POSITION"}, {"bufferView" : 1, "byteOffset" : 12, "componentType" : 5126, "count" : 432, "type" : "VEC3", "max" : [1.0000044107437134, 1.0000044107437134, 1.0000044107437134], "min" : [-1.0000044107437134, -1.0000044107437134, -1.0000044107437134], "name" : "NORMAL"}, {"bufferView" : 1, "byteOffset" : 24, "componentType" : 5126, "count" : 432, "type" : "VEC2", "max" : [0, -1], "min" : [0, -1], "name" : "TEXCOORD_0"}, {"bufferView" : 0, "byteOffset" : 864, "componentType" : 5123, "count" : 36, "type" : "SCALAR", "max" : [35], "min" : [0]}, {"bufferView" : 2, "byteOffset" : 0, "componentType" : 5126, "count" : 36, "type" : "VEC3", "max" : [0.4000000059604645, 0.4000000059604645, 1], "min" : [-0.4000000059604645, -0.4000000059604645, -1], "name" : "POSITION"}, {"bufferView" : 2, "byteOffset" : 12, "componentType" : 5126, "count" : 36, "type" : "VEC3", "max" : [1.0000044107437134, 1.0000044107437134, 1.0000044107437134], "min" : [-1.0000044107437134, -1.0000044107437134, -1.0000044107437134], "name" : "NORMAL"}, {"bufferView" : 2, "byteOffset" : 24, "componentType" : 5126, "count" : 36, "type" : "VEC2", "max" : [0, -1], "min" : [0, -1], "name" : "TEXCOORD_0"}, {"bufferView" : 0, "byteOffset" : 936, "componentType" : 5123, "count" : 432, "type" : "SCALAR", "max" : [431], "min" : [0]}, {"bufferView" : 3, "byteOffset" : 0, "componentType" : 5126, "count" : 432, "type" : "VEC3", "max" : [1, 1.5, 1], "min" : [-1, -1.5, -1], "name" : "POSITION"}, {"bufferView" : 3, "byteOffset" : 12, "componentType" : 5126, "count" : 432, "type" : "VEC3", "max" : [1.0000044107437134, 1.0000044107437134, 1.0000044107437134], "min" : [-1.0000044107437134, -1.0000044107437134, -1.0000044107437134], "name" : "NORMAL"}, {"bufferView" : 3, "byteOffset" : 24, "componentType" : 5126, "count" : 432, "type" : "VEC2", "max" : [0, -1], "min" : [0, -1], "name" : "TEXCOORD_0"}, {"bufferView" : 0, "byteOffset" : 1800, "componentType" : 5123, "count" : 36, "type" : "SCALAR", "max" : [35], "min" : [0]}, {"bufferView" : 4, "byteOffset" : 0, "componentType" : 5126, "count" : 36, "type" : "VEC3", "max" : [0.4000000059604645, 0.4000000059604645, 1], "min" : [-0.4000000059604645, -0.4000000059604645, -1], "name" : "POSITION"}, {"bufferView" : 4, "byteOffset" : 12, "componentType" : 5126, "count" : 36, "type" : "VEC3", "max" : [1.0000044107437134, 1.0000044107437134, 1.0000044107437134], "min" : [-1.0000044107437134, -1.0000044107437134, -1.0000044107437134], "name" : "NORMAL"}, {"bufferView" : 4, "byteOffset" : 24, "componentType" : 5126, "count" : 36, "type" : "VEC2", "max" : [0, -1], "min" : [0, -1], "name" : "TEXCOORD_0"}, {"bufferView" : 0, "byteOffset" : 1872, "componentType" : 5123, "count" : 432, "type" : "SCALAR", "max" : [431], "min" : [0]}, {"bufferView" : 5, "byteOffset" : 0, "componentType" : 5126, "count" : 432, "type" : "VEC3", "max" : [1, 1.5, 1], "min" : [-1, -1.5, -1], "name" : "POSITION"}, {"bufferView" : 5, "byteOffset" : 12, "componentType" : 5126, "count" : 432, "type" : "VEC3", "max" : [1.0000044107437134, 1.0000044107437134, 1.0000044107437134], "min" : [-1.0000044107437134, -1.0000044107437134, -1.0000044107437134], "name" : "NORMAL"}, {"bufferView" : 5, "byteOffset" : 24, "componentType" : 5126, "count" : 432, "type" : "VEC2", "max" : [0, -1], "min" : [0, -1], "name" : "TEXCOORD_0"}, {"bufferView" : 0, "byteOffset" : 2736, "componentType" : 5123, "count" : 36, "type" : "SCALAR", "max" : [35], "min" : [0]}, {"bufferView" : 6, "byteOffset" : 0, "componentType" : 5126, "count" : 36, "type" : "VEC3", "max" : [0.4000000059604645, 0.4000000059604645, 1], "min" : [-0.4000000059604645, -0.4000000059604645, -1], "name" : "POSITION"}, {"bufferView" : 6, "byteOffset" : 12, "componentType" : 5126, "count" : 36, "type" : "VEC3", "max" : [1.0000044107437134, 1.0000044107437134, 1.0000044107437134], "min" : [-1.0000044107437134, -1.0000044107437134, -1.0000044107437134], "name" : "NORMAL"}, {"bufferView" : 6, "byteOffset" : 24, "componentType" : 5126, "count" : 36, "type" : "VEC2", "max" : [0, -1], "min" : [0, -1], "name" : "TEXCOORD_0"}, {"bufferView" : 0, "byteOffset" : 2808, "componentType" : 5123, "count" : 432, "type" : "SCALAR", "max" : [431], "min" : [0]}, {"bufferView" : 7, "byteOffset" : 0, "componentType" : 5126, "count" : 432, "type" : "VEC3", "max" : [1, 1.5, 1], "min" : [-1, -1.5, -1], "name" : "POSITION"}, {"bufferView" : 7, "byteOffset" : 12, "componentType" : 5126, "count" : 432, "type" : "VEC3", "max" : [1.0000044107437134, 1.0000044107437134, 1.0000044107437134], "min" : [-1.0000044107437134, -1.0000044107437134, -1.0000044107437134], "name" : "NORMAL"}, {"bufferView" : 7, "byteOffset" : 24, "componentType" : 5126, "count" : 432, "type" : "VEC2", "max" : [0, -1], "min" : [0, -1], "name" : "TEXCOORD_0"}, {"bufferView" : 0, "byteOffset" : 3672, "componentType" : 5123, "count" : 36, "type" : "SCALAR", "max" : [35], "min" : [0]}, {"bufferView" : 8, "byteOffset" : 0, "componentType" : 5126, "count" : 36, "type" : "VEC3", "max" : [0.4000000059604645, 0.4000000059604645, 1], "min" : [-0.4000000059604645, -0.4000000059604645, -1], "name" : "POSITION"}, {"bufferView" : 8, "byteOffset" : 12, "componentType" : 5126, "count" : 36, "type" : "VEC3", "max" : [1.0000044107437134, 1.0000044107437134, 1.0000044107437134], "min" : [-1.0000044107437134, -1.0000044107437134, -1.0000044107437134], "name" : "NORMAL"}, {"bufferView" : 8, "byteOffset" : 24, "componentType" : 5126, "count" : 36, "type" : "VEC2", "max" : [0, -1], "min" : [0, -1], "name" : "TEXCOORD_0"}, {"bufferView" : 0, "byteOffset" : 3744, "componentType" : 5123, "count" : 432, "type" : "SCALAR", "max" : [431], "min" : [0]}, {"bufferView" : 9, "byteOffset" : 0, "componentType" : 5126, "count" : 432, "type" : "VEC3", "max" : [1, 1.5, 1], "min" : [-1, -1.5, -1], "name" : "POSITION"}, {"bufferView" : 9, "byteOffset" : 12, "componentType" : 5126, "count" : 432, "type" : "VEC3", "max" : [1.0000044107437134, 1.0000044107437134, 1.0000044107437134], "min" : [-1.0000044107437134, -1.0000044107437134, -1.0000044107437134], "name" : "NORMAL"}, {"bufferView" : 9, "byteOffset" : 24, "componentType" : 5126, "count" : 432, "type" : "VEC2", "max" : [0, -1], "min" : [0, -1], "name" : "TEXCOORD_0"}, {"bufferView" : 0, "byteOffset" : 4608, "componentType" : 5123, "count" : 36, "type" : "SCALAR", "max" : [35], "min" : [0]}, {"bufferView" : 10, "byteOffset" : 0, "componentType" : 5126, "count" : 36, "type" : "VEC3", "max" : [0.4000000059604645, 0.4000000059604645, 1], "min" : [-0.4000000059604645, -0.4000000059604645, -1], "name" : "POSITION"}, {"bufferView" : 10, "byteOffset" : 12, "componentType" : 5126, "count" : 36, "type" : "VEC3", "max" : [1.0000044107437134, 1.0000044107437134, 1.0000044107437134], "min" : [-1.0000044107437134, -1.0000044107437134, -1.0000044107437134], "name" : "NORMAL"}, {"bufferView" : 10, "byteOffset" : 24, "componentType" : 5126, "count" : 36, "type" : "VEC2", "max" : [0, -1], "min" : [0, -1], "name" : "TEXCOORD_0"}, {"bufferView" : 0, "byteOffset" : 4680, "componentType" : 5123, "count" : 432, "type" : "SCALAR", "max" : [431], "min" : [0]}, {"bufferView" : 11, "byteOffset" : 0, "componentType" : 5126, "count" : 432, "type" : "VEC3", "max" : [1, 1.5, 1], "min" : [-1, -1.5, -1], "name" : "POSITION"}, {"bufferView" : 11, "byteOffset" : 12, "componentType" : 5126, "count" : 432, "type" : "VEC3", "max" : [1.0000044107437134, 1.0000044107437134, 1.0000044107437134], "min" : [-1.0000044107437134, -1.0000044107437134, -1.0000044107437134], "name" : "NORMAL"}, {"bufferView" : 11, "byteOffset" : 24, "componentType" : 5126, "count" : 432, "type" : "VEC2", "max" : [0, -1], "min" : [0, -1], "name" : "TEXCOORD_0"}, {"bufferView" : 0, "byteOffset" : 5544, "componentType" : 5123, "count" : 36, "type" : "SCALAR", "max" : [35], "min" : [0]}, {"bufferView" : 12, "byteOffset" : 0, "componentType" : 5126, "count" : 36, "type" : "VEC3", "max" : [0.4000000059604645, 0.4000000059604645, 1], "min" : [-0.4000000059604645, -0.4000000059604645, -1], "name" : "POSITION"}, {"bufferView" : 12, "byteOffset" : 12, "componentType" : 5126, "count" : 36, "type" : "VEC3", "max" : [1.0000044107437134, 1.0000044107437134, 1.0000044107437134], "min" : [-1.0000044107437134, -1.0000044107437134, -1.0000044107437134], "name" : "NORMAL"}, {"bufferView" : 12, "byteOffset" : 24, "componentType" : 5126, "count" : 36, "type" : "VEC2", "max" : [0, -1], "min" : [0, -1], "name" : "TEXCOORD_0"}, {"bufferView" : 0, "byteOffset" : 5616, "componentType" : 5123, "count" : 1512, "type" : "SCALAR", "max" : [1259], "min" : [0]}, {"bufferView" : 13, "byteOffset" : 0, "componentType" : 5126, "count" : 1260, "type" : "VEC3", "max" : [11, 1.25, 11], "min" : [-11, -1.25, -11], "name" : "POSITION"}, {"bufferView" : 13, "byteOffset" : 12, "componentType" : 5126, "count" : 1260, "type" : "VEC3", "max" : [0.7071098685264587, 1.0000044107437134, 0.7071098685264587], "min" : [-0.7071098685264587, -1.0000044107437134, -0.7071098685264587], "name" : "NORMAL"}, {"bufferView" : 13, "byteOffset" : 24, "componentType" : 5126, "count" : 1260, "type" : "VEC2", "max" : [0, -1], "min" : [0, -1], "name" : "TEXCOORD_0"}], "asset" : {"generator" : "Aspose.3D 23.9.0", "version" : "2.0"}, "buffers" : [{"uri" : "data:application/octet-stream;base64,", "byteLength" : 146936}], "bufferViews" : [{"buffer" : 0, "byteOffset" : 0, "byteLength" : 8640, "target" : 34963}, {"buffer" : 0, "byteOffset" : 8644, "byteLength" : 13824, "byteStride" : 32, "target" : 34962}, {"buffer" : 0, "byteOffset" : 22472, "byteLength" : 1152, "byteStride" : 32, "target" : 34962}, {"buffer" : 0, "byteOffset" : 23628, "byteLength" : 13824, "byteStride" : 32, "target" : 34962}, {"buffer" : 0, "byteOffset" : 37456, "byteLength" : 1152, "byteStride" : 32, "target" : 34962}, {"buffer" : 0, "byteOffset" : 38612, "byteLength" : 13824, "byteStride" : 32, "target" : 34962}, {"buffer" : 0, "byteOffset" : 52440, "byteLength" : 1152, "byteStride" : 32, "target" : 34962}, {"buffer" : 0, "byteOffset" : 53596, "byteLength" : 13824, "byteStride" : 32, "target" : 34962}, {"buffer" : 0, "byteOffset" : 67424, "byteLength" : 1152, "byteStride" : 32, "target" : 34962}, {"buffer" : 0, "byteOffset" : 68580, "byteLength" : 13824, "byteStride" : 32, "target" : 34962}, {"buffer" : 0, "byteOffset" : 82408, "byteLength" : 1152, "byteStride" : 32, "target" : 34962}, {"buffer" : 0, "byteOffset" : 83564, "byteLength" : 13824, "byteStride" : 32, "target" : 34962}, {"buffer" : 0, "byteOffset" : 97392, "byteLength" : 1152, "byteStride" : 32, "target" : 34962}, {"buffer" : 0, "byteOffset" : 98548, "byteLength" : 48384, "byteStride" : 32, "target" : 34962}], "materials" : [{"name" : "Mat", "pbrMetallicRoughness" : {"baseColorFactor" : [0.8, 0.8, 0.8, 1], "metallicFactor" : 0, "roughnessFactor" : 0}, "emissiveFactor" : [0, 0, 0], "alphaMode" : "OPAQUE", "doubleSided" : false}, {"name" : "Mat", "pbrMetallicRoughness" : {"baseColorFactor" : [0.8, 0.8, 0.8, 1], "metallicFactor" : 0, "roughnessFactor" : 0}, "emissiveFactor" : [0, 0, 0], "alphaMode" : "OPAQUE", "doubleSided" : false}, {"name" : "Mat", "pbrMetallicRoughness" : {"baseColorFactor" : [0.8, 0.8, 0.8, 1], "metallicFactor" : 0, "roughnessFactor" : 0}, "emissiveFactor" : [0, 0, 0], "alphaMode" : "OPAQUE", "doubleSided" : false}, {"name" : "Mat", "pbrMetallicRoughness" : {"baseColorFactor" : [0.8, 0.8, 0.8, 1], "metallicFactor" : 0, "roughnessFactor" : 0}, "emissiveFactor" : [0, 0, 0], "alphaMode" : "OPAQUE", "doubleSided" : false}, {"name" : "Mat", "pbrMetallicRoughness" : {"baseColorFactor" : [0.8, 0.8, 0.8, 1], "metallicFactor" : 0, "roughnessFactor" : 0}, "emissiveFactor" : [0, 0, 0], "alphaMode" : "OPAQUE", "doubleSided" : false}, {"name" : "Mat", "pbrMetallicRoughness" : {"baseColorFactor" : [0.8, 0.8, 0.8, 1], "metallicFactor" : 0, "roughnessFactor" : 0}, "emissiveFactor" : [0, 0, 0], "alphaMode" : "OPAQUE", "doubleSided" : false}, {"name" : "Mat", "pbrMetallicRoughness" : {"baseColorFactor" : [0.8, 0.8, 0.8, 1], "metallicFactor" : 0, "roughnessFactor" : 0}, "emissiveFactor" : [0, 0, 0], "alphaMode" : "OPAQUE", "doubleSided" : false}, {"name" : "Mat", "pbrMetallicRoughness" : {"baseColorFactor" : [0.8, 0.8, 0.8, 1], "metallicFactor" : 0, "roughnessFactor" : 0}, "emissiveFactor" : [0, 0, 0], "alphaMode" : "OPAQUE", "doubleSided" : false}, {"name" : "Mat", "pbrMetallicRoughness" : {"baseColorFactor" : [0.8, 0.8, 0.8, 1], "metallicFactor" : 0, "roughnessFactor" : 0}, "emissiveFactor" : [0, 0, 0], "alphaMode" : "OPAQUE", "doubleSided" : false}, {"name" : "Mat", "pbrMetallicRoughness" : {"baseColorFactor" : [0.8, 0.8, 0.8, 1], "metallicFactor" : 0, "roughnessFactor" : 0}, "emissiveFactor" : [0, 0, 0], "alphaMode" : "OPAQUE", "doubleSided" : false}, {"name" : "Mat", "pbrMetallicRoughness" : {"baseColorFactor" : [0.8, 0.8, 0.8, 1], "metallicFactor" : 0, "roughnessFactor" : 0}, "emissiveFactor" : [0, 0, 0], "alphaMode" : "OPAQUE", "doubleSided" : false}, {"name" : "Mat", "pbrMetallicRoughness" : {"baseColorFactor" : [0.8, 0.8, 0.8, 1], "metallicFactor" : 0, "roughnessFactor" : 0}, "emissiveFactor" : [0, 0, 0], "alphaMode" : "OPAQUE", "doubleSided" : false}, {"name" : "Mat", "pbrMetallicRoughness" : {"baseColorFactor" : [0.8, 0.8, 0.8, 1], "metallicFactor" : 0, "roughnessFactor" : 0}, "emissiveFactor" : [0, 0, 0], "alphaMode" : "OPAQUE", "doubleSided" : false}], "meshes" : [{"primitives" : [{"attributes" : {"POSITION" : 1, "NORMAL" : 2, "TEXCOORD_0" : 3}, "indices" : 0, "material" : 0, "mode" : 4}], "name" : ""}, {"primitives" : [{"attributes" : {"POSITION" : 5, "NORMAL" : 6, "TEXCOORD_0" : 7}, "indices" : 4, "material" : 1, "mode" : 4}], "name" : ""}, {"primitives" : [{"attributes" : {"POSITION" : 9, "NORMAL" : 10, "TEXCOORD_0" : 11}, "indices" : 8, "material" : 2, "mode" : 4}], "name" : ""}, {"primitives" : [{"attributes" : {"POSITION" : 13, "NORMAL" : 14, "TEXCOORD_0" : 15}, "indices" : 12, "material" : 3, "mode" : 4}], "name" : ""}, {"primitives" : [{"attributes" : {"POSITION" : 17, "NORMAL" : 18, "TEXCOORD_0" : 19}, "indices" : 16, "material" : 4, "mode" : 4}], "name" : ""}, {"primitives" : [{"attributes" : {"POSITION" : 21, "NORMAL" : 22, "TEXCOORD_0" : 23}, "indices" : 20, "material" : 5, "mode" : 4}], "name" : ""}, {"primitives" : [{"attributes" : {"POSITION" : 25, "NORMAL" : 26, "TEXCOORD_0" : 27}, "indices" : 24, "material" : 6, "mode" : 4}], "name" : ""}, {"primitives" : [{"attributes" : {"POSITION" : 29, "NORMAL" : 30, "TEXCOORD_0" : 31}, "indices" : 28, "material" : 7, "mode" : 4}], "name" : ""}, {"primitives" : [{"attributes" : {"POSITION" : 33, "NORMAL" : 34, "TEXCOORD_0" : 35}, "indices" : 32, "material" : 8, "mode" : 4}], "name" : ""}, {"primitives" : [{"attributes" : {"POSITION" : 37, "NORMAL" : 38, "TEXCOORD_0" : 39}, "indices" : 36, "material" : 9, "mode" : 4}], "name" : ""}, {"primitives" : [{"attributes" : {"POSITION" : 41, "NORMAL" : 42, "TEXCOORD_0" : 43}, "indices" : 40, "material" : 10, "mode" : 4}], "name" : ""}, {"primitives" : [{"attributes" : {"POSITION" : 45, "NORMAL" : 46, "TEXCOORD_0" : 47}, "indices" : 44, "material" : 11, "mode" : 4}], "name" : ""}, {"primitives" : [{"attributes" : {"POSITION" : 49, "NORMAL" : 50, "TEXCOORD_0" : 51}, "indices" : 48, "material" : 12, "mode" : 4}], "name" : ""}], "nodes" : [{"matrix" : [1, 0, 0, 0, 0, 1, 0, 0, 0, 0, 1, 0, 0, 0, 1, 1], "mesh" : 1, "name" : "Cube"}, {"children" : [0], "matrix" : [1, 0, 0, 0, 0, 0.7193398003386512, 0.6946583704589973, 0, 0, -0.6946583704589973, 0.7193398003386512, 0, 0, -0.5, -12.2, 1], "mesh" : 0, "name" : "Cylinder.1_0"}, {"matrix" : [1, 0, 0, 0, 0, 1, 0, 0, 0, 0, 1, 0, 0, 0, 1, 1], "mesh" : 3, "name" : "Cube"}, {"children" : [2], "matrix" : [0.49999999999999994, 1.7618743679680508E-16, 0.8660254037844387, 0, -0.6015917957689934, 0.7193398003386512, 0.34732918522949846, 0, -0.6229665410464978, -0.6946583704589973, 0.35966990016932565, 0, 10.5655, -0.5, -6.1, 1], "mesh" : 2, "name" : "Cylinder.1_1"}, {"matrix" : [1, 0, 0, 0, 0, 1, 0, 0, 0, 0, 1, 0, 0, 0, 1, 1], "mesh" : 5, "name" : "Cube"}, {"children" : [4], "matrix" : [-0.5000000000000002, 0, 0.8660254037844384, 0, -0.601591795768993, 0.7193398003386512, -0.3473291852294988, 0, -0.6229665410464976, -0.6946583704589973, -0.35966990016932576, 0, 10.5655, -0.5, 6.1, 1], "mesh" : 4, "name" : "Cylinder.1_2"}, {"matrix" : [1, 0, 0, 0, 0, 1, 0, 0, 0, 0, 1, 0, 0, 0, 1, 1], "mesh" : 7, "name" : "Cube"}, {"children" : [6], "matrix" : [-1, 0, -1.2246467991473532E-16, 0, 8.507111498835273E-17, 0.7193398003386512, -0.6946583704589973, 0, 8.809371839840254E-17, -0.6946583704589973, -0.7193398003386512, 0, 1.49407E-15, -0.5, 12.2, 1], "mesh" : 6, "name" : "Cylinder.1_3"}, {"matrix" : [1, 0, 0, 0, 0, 1, 0, 0, 0, 0, 1, 0, 0, 0, 1, 1], "mesh" : 9, "name" : "Cube"}, {"children" : [8], "matrix" : [-0.4999999999999998, 0, -0.8660254037844388, 0, 0.6015917957689934, 0.7193398003386512, -0.34732918522949846, 0, 0.622966541046498, -0.6946583704589973, -0.35966990016932543, 0, -10.5655, -0.5, 6.1, 1], "mesh" : 8, "name" : "Cylinder.1_4"}, {"matrix" : [1, 0, 0, 0, 0, 1, 0, 0, 0, 0, 1, 0, 0, 0, 1, 1], "mesh" : 11, "name" : "Cube"}, {"children" : [10], "matrix" : [0.5000000000000001, 0, -0.8660254037844386, 0, 0.6015917957689932, 0.7193398003386512, 0.3473291852294987, 0, 0.6229665410464978, -0.6946583704589973, 0.35966990016932565, 0, -10.5655, -0.5, -6.1, 1], "mesh" : 10, "name" : "Cylinder.1_5"}, {"children" : [1, 3, 5, 7, 9, 11], "matrix" : [1, 0, 0, 0, 0, 1, 0, 0, 0, 0, 1, 0, 0, 2, 0, 1], "name" : "Cloner"}, {"mesh" : 12, "name" : "Cylinder"}], "scene" : 0, "scenes" : [{"nodes" : [12, 13]}]}